<svg width="320" height="320" viewBox="0 0 320 320" fill="none" xmlns="http://www.w3.org/2000/svg">
<g filter="url(#filter0_d_0_1)">
<rect width="311" height="311" rx="100" fill="white"/>
</g>
<g filter="url(#filter1_i_0_1)">
<path d="M132.859 236C135.016 236 136.703 235.391 137.922 234.172C139.234 232.859 139.891 231.312 139.891 229.531C139.891 228.031 139.281 226.719 138.062 225.594C136.938 224.469 135.297 223.906 133.141 223.906H119.078V157.531H195.016V223.906H180.953C178.797 223.906 177.109 224.516 175.891 225.734C174.766 226.859 174.203 228.219 174.203 229.812C174.203 231.5 174.812 232.953 176.031 234.172C177.344 235.391 179.078 236 181.234 236H222.578C224.734 236 226.422 235.391 227.641 234.172C228.953 232.953 229.609 231.547 229.609 229.953C229.609 228.266 229 226.859 227.781 225.734C226.562 224.516 224.828 223.906 222.578 223.906H208.516V83.4219H222.578C224.828 83.4219 226.562 82.8125 227.781 81.5938C229 80.2813 229.609 78.7812 229.609 77.0938C229.609 75.5937 228.953 74.2812 227.641 73.1562C226.422 71.9375 224.734 71.3281 222.578 71.3281H181.234C179.078 71.3281 177.344 71.9375 176.031 73.1562C174.812 74.375 174.203 75.8281 174.203 77.5156C174.203 79.1094 174.766 80.5156 175.891 81.7344C177.109 82.8594 178.797 83.4219 180.953 83.4219H195.016V146.281H119.078V83.4219H133.141C135.297 83.4219 136.938 82.8594 138.062 81.7344C139.281 80.5156 139.891 79.1094 139.891 77.5156C139.891 75.8281 139.234 74.375 137.922 73.1562C136.703 71.9375 135.016 71.3281 132.859 71.3281H90.3906C88.2344 71.3281 86.5 71.9375 85.1875 73.1562C83.9688 74.375 83.3594 75.7813 83.3594 77.375C83.3594 79.0625 83.9688 80.5156 85.1875 81.7344C86.4062 82.8594 88.1406 83.4219 90.3906 83.4219H105.578V223.906H88.1406C85.9844 223.906 84.2969 224.516 83.0781 225.734C81.9531 226.859 81.3906 228.219 81.3906 229.812C81.3906 231.5 82 232.953 83.2188 234.172C84.5312 235.391 86.2656 236 88.4219 236H132.859Z" fill="url(#paint0_linear_0_1)"/>
</g>
<defs>
<filter id="filter0_d_0_1" x="0" y="0" width="320" height="320" filterUnits="userSpaceOnUse" color-interpolation-filters="sRGB">
<feFlood flood-opacity="0" result="BackgroundImageFix"/>
<feColorMatrix in="SourceAlpha" type="matrix" values="0 0 0 0 0 0 0 0 0 0 0 0 0 0 0 0 0 0 127 0" result="hardAlpha"/>
<feOffset dx="5" dy="5"/>
<feGaussianBlur stdDeviation="2"/>
<feComposite in2="hardAlpha" operator="out"/>
<feColorMatrix type="matrix" values="0 0 0 0 0 0 0 0 0 0 0 0 0 0 0 0 0 0 0.2 0"/>
<feBlend mode="normal" in2="BackgroundImageFix" result="effect1_dropShadow_0_1"/>
<feBlend mode="normal" in="SourceGraphic" in2="effect1_dropShadow_0_1" result="shape"/>
</filter>
<filter id="filter1_i_0_1" x="81.3906" y="71.3281" width="148.219" height="168.672" filterUnits="userSpaceOnUse" color-interpolation-filters="sRGB">
<feFlood flood-opacity="0" result="BackgroundImageFix"/>
<feBlend mode="normal" in="SourceGraphic" in2="BackgroundImageFix" result="shape"/>
<feColorMatrix in="SourceAlpha" type="matrix" values="0 0 0 0 0 0 0 0 0 0 0 0 0 0 0 0 0 0 127 0" result="hardAlpha"/>
<feOffset dy="4"/>
<feGaussianBlur stdDeviation="2"/>
<feComposite in2="hardAlpha" operator="arithmetic" k2="-1" k3="1"/>
<feColorMatrix type="matrix" values="0 0 0 0 0 0 0 0 0 0 0 0 0 0 0 0 0 0 0.25 0"/>
<feBlend mode="normal" in2="shape" result="effect1_innerShadow_0_1"/>
</filter>
<linearGradient id="paint0_linear_0_1" x1="75" y1="48" x2="237" y2="230" gradientUnits="userSpaceOnUse">
<stop stop-color="#1657F0"/>
<stop offset="0.616561" stop-color="#36DBE0"/>
</linearGradient>
</defs>
</svg>
